<?xml version="1.0" encoding="utf-8"?>
<!-- Generator: Adobe Illustrator 15.0.0, SVG Export Plug-In . SVG Version: 6.00 Build 0)  -->
<!DOCTYPE svg PUBLIC "-//W3C//DTD SVG 1.1//EN" "http://www.w3.org/Graphics/SVG/1.1/DTD/svg11.dtd">
<svg version="1.1" id="Layer_1" xmlns="http://www.w3.org/2000/svg" xmlns:xlink="http://www.w3.org/1999/xlink" x="0px" y="0px"
	 width="800px" height="600px" viewBox="0 0 800 600" enable-background="new 0 0 800 600" xml:space="preserve">
<g>
	<g>
		<path fill="#FFFFFF" d="M-123.466-112.5c349.713,0,699.452,0,1049.163,0c0,286.327,0,572.662,0,858.99
			c-350.436,0-700.869,0-1051.301,0c0-284.191,0-568.391,0-852.579C-125.786-109.121-125.956-112.141-123.466-112.5z
			 M212.009,111.864c-42.08,15.278-85.083-7.057-121.796,6.411c-47.447,17.405-44.873,59.114-44.873,130.344
			c0,76.526,0,130.237,0,192.311c0,32.866-4.35,68.648,4.274,91.882c22.007,59.287,110.927,44.874,196.584,44.874
			c112.318,0,201.375,0,314.107,0c44.672,0,118.609,9.527,153.852-4.272c43.775-17.146,44.871-65.245,44.871-128.209
			c0-32.304,0-62.646,0-98.291c0-91.567,17.971-204.391-44.871-228.637c-41.568-16.037-95.607,12.774-130.346-8.547
			c-13.721-8.42-16.383-36.223-21.369-51.283c-5.885-17.788-9.959-38.897-27.775-47.011c-26.273-11.959-88.105-4.273-126.074-4.273
			c-43.489,0-98.676-8.293-134.616,2.138C234.886,20.644,248.657,98.556,212.009,111.864z"/>
		<path d="M273.977,9.298c35.94-10.432,91.127-2.138,134.617-2.138c37.967,0,99.801-7.687,126.072,4.274
			c17.818,8.113,21.893,29.223,27.777,47.009c4.984,15.062,7.648,42.862,21.367,51.284c34.738,21.322,88.779-7.49,130.346,8.547
			C777,142.52,759.029,255.343,759.029,346.907c0,35.648,0,65.99,0,98.294c0,62.964-1.096,111.062-44.873,128.207
			c-35.242,13.804-109.178,4.274-153.85,4.274c-112.732,0-201.79,0-314.108,0c-85.657,0-174.578,14.412-196.585-44.873
			c-8.624-23.233-4.273-59.017-4.273-91.882c0-62.074,0-115.785,0-192.312c0-71.23-2.572-112.939,44.874-130.344
			c36.713-13.467,79.716,8.87,121.797-6.411C248.657,98.556,234.886,20.644,273.977,9.298z M299.618,180.241
			c-40.975,28.133-77.955,73.724-76.924,149.576c1.398,102.951,80.496,178.088,179.491,177.353
			c96.506-0.715,169.564-76.679,177.354-160.257c11.26-120.875-84.117-208.479-200.858-194.447
			C344.859,156.527,319.256,166.758,299.618,180.241z M637.23,208.02c-2.781,37.878,54.025,33.137,49.145-2.138
			c-2.1-15.194-15.736-20.146-25.641-19.231C642.359,188.349,638.334,193.016,637.23,208.02z"/>
		<path fill="#FFFFFF" d="M378.679,152.463c116.741-14.03,212.12,73.574,200.858,194.444
			c-7.787,83.583-80.848,159.545-177.353,160.261c-98.995,0.734-178.094-74.402-179.492-177.354
			c-1.03-75.851,35.948-121.442,76.924-149.575C319.256,166.758,344.859,156.527,378.679,152.463z M295.344,308.447
			c-22.419,148.261,211.865,175.805,213.679,21.369c0.791-67.439-55.342-114.755-119.66-106.839
			C337.293,229.386,301.893,265.145,295.344,308.447z"/>
		<path fill="#FFFFFF" d="M660.734,186.652c9.904-0.916,23.541,4.037,25.641,19.231c4.881,35.273-51.926,40.014-49.145,2.137
			C638.334,193.016,642.359,188.349,660.734,186.652z"/>
		<path d="M389.364,222.978c64.318-7.917,120.451,39.4,119.66,106.839c-1.814,154.436-236.099,126.892-213.679-21.369
			C301.893,265.145,337.293,229.386,389.364,222.978z"/>
	</g>
</g>
</svg>
