<?xml version="1.0" encoding="utf-8"?>
<!-- Generator: Adobe Illustrator 15.0.0, SVG Export Plug-In . SVG Version: 6.00 Build 0)  -->
<!DOCTYPE svg PUBLIC "-//W3C//DTD SVG 1.1//EN" "http://www.w3.org/Graphics/SVG/1.1/DTD/svg11.dtd">
<svg version="1.1" id="Layer_1" xmlns="http://www.w3.org/2000/svg" xmlns:xlink="http://www.w3.org/1999/xlink" x="0px" y="0px"
	 width="800px" height="600px" viewBox="0 0 800 600" enable-background="new 0 0 800 600" xml:space="preserve">
<g>
	<g>
		<path fill="#FFFFFF" d="M49.713-36.5c230.264,0,460.521,0,690.787,0c0,228.499,0,456.994,0,685.494
			c-231.144,0-462.291,0-693.434,0c0-225.851,0-451.702,0-677.554C46.838-32.316,46.629-36.056,49.713-36.5z M679.626,548.419
			c12.438-29.804,5.294-83.08,5.294-121.747c0-86.791,0-170.617,0-256.73c0-39.486,5.773-94.955-7.939-121.747
			C654.356,3.999,583.997,11.14,512.885,11.14c-77.639,0-157.422,0-232.911,0c-40.008,0-85.484-6.06-119.101,0
			c-63.484,11.446-58.228,81.253-58.228,161.449c0,84.11,0,169.825,0,254.083c0,40.515-5.489,95.784,5.294,121.747
			c22.518,54.216,95.498,42.348,164.096,42.348c40.133,0,79.025,0,124.395,0c0-69.698,0-139.395,0-209.091
			c-22.937,0-45.876,0-68.814,0c1.754-29.124-3.514-65.27,2.646-89.988c22.056,0,44.112,0,66.168,0
			c-12.83-127.521,56.083-187.409,182.622-166.741c-1.659,32.747,3.387,72.202-2.646,100.575
			c-22.268,1.554-50.885-3.243-68.814,2.646c-10.575,12.365-3.025,42.851-5.295,63.521c25.586,0,51.171,0,76.756,0
			c-1.754,29.125,3.515,65.272-2.646,89.988c-24.702,0-49.405,0-74.109,0c0,69.696,0,139.393,0,209.091
			C585.93,590.593,657.25,602.035,679.626,548.419z"/>
		<path d="M502.296,590.767c0-69.698,0-139.395,0-209.091c24.704,0,49.407,0,74.109,0c6.161-24.716,0.891-60.862,2.646-89.988
			c-25.585,0-51.17,0-76.756,0c2.27-20.669-5.28-51.155,5.295-63.521c17.93-5.889,46.548-1.091,68.814-2.646
			c6.033-28.373,0.986-67.828,2.646-100.575C452.513,104.28,383.6,164.169,396.43,291.689c-22.056,0-44.112,0-66.168,0
			c-6.16,24.717-0.892,60.864-2.646,89.987c22.938,0,45.876,0,68.814,0c0,69.697,0,139.394,0,209.092c-45.37,0-84.261,0-124.395,0
			c-68.598,0-141.577,11.868-164.095-42.348c-10.784-25.962-5.294-81.232-5.294-121.747c0-84.259,0-169.974,0-254.083
			c0-80.195-5.257-150.002,58.228-161.449c33.617-6.06,79.092,0,119.101,0c75.488,0,155.271,0,232.911,0
			c71.112,0,141.472-7.142,164.096,37.054c13.713,26.793,7.939,82.262,7.939,121.748c0,86.113,0,169.94,0,256.73
			c0,38.667,7.144,91.945-5.294,121.747C657.25,602.035,585.93,590.593,502.296,590.767z"/>
	</g>
</g>
</svg>
