<?xml version="1.0" encoding="utf-8"?>
<!-- Generator: Adobe Illustrator 15.0.0, SVG Export Plug-In . SVG Version: 6.00 Build 0)  -->
<!DOCTYPE svg PUBLIC "-//W3C//DTD SVG 1.1//EN" "http://www.w3.org/Graphics/SVG/1.1/DTD/svg11.dtd">
<svg version="1.1" id="Layer_1" xmlns="http://www.w3.org/2000/svg" xmlns:xlink="http://www.w3.org/1999/xlink" x="0px" y="0px"
	 width="800px" height="600px" viewBox="0 0 800 600" enable-background="new 0 0 800 600" xml:space="preserve">
<g>
	<g>
		<path fill="#FFFFFF" d="M-25.763-162.5c285.217,0,570.435,0,855.652,0c0,311.337,0,622.658,0,934c-285.907,0-571.806,0-857.714,0
			c0-309.274,0-618.54,0-927.815C-28.002-159.242-28.166-162.154-25.763-162.5z M192.789,103.474
			c-41.912,44.929-75.976,116.257-74.225,199.996c3.274,156.641,119.007,273.983,263.912,284.529
			c92.76,6.752,168.965-26.532,224.737-78.349c51.744-48.073,93.104-112.131,92.781-212.367
			c-0.253-79.107-36.581-151.337-78.348-195.872C565.151,41.171,487.553-0.21,376.29,10.692
			C294.12,18.744,234.11,59.175,192.789,103.474z"/>
		<path d="M376.29,10.692C487.553-0.21,565.151,41.171,621.646,101.411c41.767,44.535,78.095,116.765,78.348,195.872
			c0.323,100.236-41.038,164.294-92.781,212.367c-55.771,51.816-131.977,85.1-224.738,78.349
			C237.569,577.452,121.837,460.11,118.563,303.47c-1.751-83.739,32.313-155.067,74.225-199.996
			C234.11,59.175,294.12,18.744,376.29,10.692z M178.356,208.625c17.976,5.905,63.043-0.783,68.04,20.618
			c4.788,20.508-26.396,42.099-20.618,70.101c3.703,17.946,38.592,28.362,45.36,47.422c8.483,23.889,2.75,53.528,10.31,76.286
			c8.158,24.562,34.092,48.428,57.73,55.668c4.05-57.127-10.344-118.944,32.989-150.512c13.228-9.637,33.244-15.083,41.236-26.805
			c12.34-18.099,11.293-48.692,4.122-63.916c-17.466-37.086-92.374-45.893-142.264-43.298
			c-33.909-17.868-12.195-41.412,8.247-61.854c11.756-11.756,19.592-25.295,30.927-35.05c9.14-7.866,23.66-13.802,32.989-20.618
			c10.753-7.854,23.969-14.254,22.68-22.68C272.151,71.497,212.824,127.634,178.356,208.625z M487.628,64.298
			c-16.916,12.723-11.19,48.791,8.248,53.607c15.789,3.912,23.396-10.452,41.235-10.31c21.894,36.181-29.793,45.597-32.988,80.411
			c-2.494,27.167,14.699,54.282,39.174,63.916c9.34,3.677,23.457,0.834,35.052,6.187c17.663,8.154,24.452,34.778,26.804,57.73
			c5.767,56.295-24.282,94.346-2.062,131.954C719.46,321.681,628.916,93.131,487.628,64.298z M353.61,515.836
			c-3.726,5.775-24.479,14.606-16.494,18.556c69.861,25.052,163.784,5.763,208.244-30.927
			C490.489,454.376,416.765,511.038,353.61,515.836z"/>
		<path fill="#FFFFFF" d="M370.104,53.99c1.29,8.426-11.927,14.825-22.68,22.68c-9.33,6.815-23.85,12.752-32.989,20.618
			c-11.335,9.756-19.171,23.294-30.927,35.051c-20.442,20.442-42.156,43.985-8.247,61.854
			c49.891-2.594,124.798,6.212,142.264,43.299c7.171,15.224,8.217,45.817-4.122,63.917c-7.993,11.72-28.009,17.169-41.236,26.803
			c-43.333,31.568-28.94,93.386-32.989,150.514c-23.639-7.241-49.572-31.106-57.73-55.67c-7.559-22.758-1.827-52.397-10.31-76.285
			c-6.767-19.062-41.657-29.477-45.36-47.421c-5.777-28.003,25.405-49.594,20.618-70.102c-4.997-21.402-50.063-14.714-68.04-20.618
			C212.824,127.634,272.151,71.497,370.104,53.99z"/>
		<path fill="#FFFFFF" d="M603.089,447.795c-22.22-37.607,7.829-75.659,2.062-131.954c-2.352-22.952-9.141-49.577-26.804-57.73
			c-11.595-5.353-25.713-2.51-35.052-6.187c-24.475-9.632-41.668-36.748-39.174-63.916c3.195-34.814,54.882-44.23,32.988-80.411
			c-17.841-0.143-25.446,14.221-41.235,10.31c-19.438-4.816-25.164-40.885-8.248-53.607
			C628.916,93.131,719.46,321.681,603.089,447.795z"/>
		<path fill="#FFFFFF" d="M545.359,503.465c-44.46,36.689-138.383,55.979-208.244,30.927c-7.985-3.949,12.768-12.78,16.494-18.556
			C416.765,511.038,490.489,454.376,545.359,503.465z"/>
	</g>
</g>
</svg>
