<?xml version="1.0" encoding="utf-8"?>
<!-- Generator: Adobe Illustrator 15.0.0, SVG Export Plug-In . SVG Version: 6.00 Build 0)  -->
<!DOCTYPE svg PUBLIC "-//W3C//DTD SVG 1.1//EN" "http://www.w3.org/Graphics/SVG/1.1/DTD/svg11.dtd">
<svg version="1.1" id="Layer_1" xmlns="http://www.w3.org/2000/svg" xmlns:xlink="http://www.w3.org/1999/xlink" x="0px" y="0px"
	 width="800px" height="600px" viewBox="0 0 800 600" enable-background="new 0 0 800 600" xml:space="preserve">
<g>
	<path fill="#5F449B" d="M510.686,432c0,107-220.661,107-220.661,0c0-108,49.396-195.041,110.331-195.041
		C461.289,236.959,510.686,324,510.686,432z"/>
	<circle fill="#5F449B" cx="400" cy="150.199" r="65.702"/>
</g>
<g>
	<path fill="#5F449B" d="M709.905,412c0,87-178.88,87-178.88,0s40.044-158.111,89.439-158.111
		C669.861,253.889,709.905,325,709.905,412z"/>
	<circle fill="#5F449B" cx="620.177" cy="183.75" r="53.263"/>
</g>
<g>
	<path fill="#5F449B" d="M268.905,412c0,87-178.88,87-178.88,0s40.044-158.111,89.439-158.111
		C228.861,253.889,268.905,325,268.905,412z"/>
	<circle fill="#5F449B" cx="179.177" cy="183.75" r="53.263"/>
</g>
</svg>
