<?xml version="1.0" encoding="utf-8"?>
<!-- Generator: Adobe Illustrator 15.0.0, SVG Export Plug-In . SVG Version: 6.00 Build 0)  -->
<!DOCTYPE svg PUBLIC "-//W3C//DTD SVG 1.1//EN" "http://www.w3.org/Graphics/SVG/1.1/DTD/svg11.dtd">
<svg version="1.1" id="Layer_1" xmlns="http://www.w3.org/2000/svg" xmlns:xlink="http://www.w3.org/1999/xlink" x="0px" y="0px"
	 width="800px" height="600px" viewBox="0 0 800 600" enable-background="new 0 0 800 600" xml:space="preserve">
<g>
	<g>
		<path d="M473.008,469.253c-52.288,0-104.578,0-156.866,0c3.856-119.153-116.336-155.79-124.522-270.067
			C183.734,89.094,266.697,14.054,372.743,6.741C501.799-2.156,600.942,66.707,599.146,191.1
			C597.352,315.491,472.354,342.027,473.008,469.253z M473.008,310.77c21.249-30.861,57.978-70.495,63.069-106.731
			c13.429-95.552-64.111-145.567-163.334-137.459c-71.829,5.869-121.564,49.876-119.671,122.904
			c0.348,13.43,4.317,28.653,9.702,40.43c28.818,63.006,95.506,112.706,108.351,187.592c16.172,0,32.344,0,48.514,0
			C429.718,375.845,449.909,344.321,473.008,310.77z"/>
		<path d="M477.858,504.83c0,19.407,0,38.812,0,58.218c-36.5,33.17-128.451,33.183-164.951,0c0-18.326,0-36.654,0-54.981
			c-0.071-2.769,1.203-4.188,3.234-4.853C369.519,504.281,427.175,501.07,477.858,504.83z"/>
	</g>
</g>
</svg>
