<?xml version="1.0" encoding="utf-8"?>
<!-- Generator: Adobe Illustrator 15.0.0, SVG Export Plug-In . SVG Version: 6.00 Build 0)  -->
<!DOCTYPE svg PUBLIC "-//W3C//DTD SVG 1.1//EN" "http://www.w3.org/Graphics/SVG/1.1/DTD/svg11.dtd">
<svg version="1.1" id="Layer_1" xmlns="http://www.w3.org/2000/svg" xmlns:xlink="http://www.w3.org/1999/xlink" x="0px" y="0px"
	 width="800px" height="600px" viewBox="0 0 800 600" enable-background="new 0 0 800 600" xml:space="preserve">
<g>
	<g>
		<path fill="#FFFFFF" d="M-81.09-69.076c315.533,0,631.052,0,946.59,0c0,260.858,0,521.722,0,782.576
			c-316.309,0-632.629,0-948.932,0c0-258.514,0-517.035,0-775.547C-83.634-65.374-83.819-68.682-81.09-69.076z M345.344,594.006
			c16.003,2.351,32.012-9.891,49.204-16.401c19.66-7.448,37.11-7.514,39.832-28.117c2.238-16.95-21.828-23.075-32.802-39.833
			c-9.327-14.239-35.926-63.298-30.461-84.35c5.709-21.994,51.381-24.349,93.721-21.088c33.771,2.603,65.259,14.728,93.723,30.461
			c21.196,11.714,57.972,44.166,89.037,30.459c10.915-4.815,21.294-28.49,23.43-44.518c12.689-95.162-28.456-182.82-56.233-238.99
			c-27.129-54.86-59.278-109.918-98.407-142.927c-15.769-13.301-36.662-24.192-56.234-25.773
			c-29.353-2.372-37.904,46.243-39.83,53.89c-4.759,18.888-9.862,40.629-18.744,60.919
			c-38.72,88.444-131.297,142.02-217.904,180.415c-13.855,6.143-42.855,13.124-53.891,25.772
			c-54.284,62.229,37.787,166.721,98.409,117.154c9.592,16.181,33.974,17.571,51.547,25.772
			C300.254,502.105,307.979,588.52,345.344,594.006z"/>
		<path d="M279.738,476.853c-17.573-8.201-41.954-9.592-51.548-25.772c-60.62,49.566-152.692-54.925-98.408-117.154
			c11.035-12.648,40.034-19.63,53.891-25.772c86.607-38.395,179.185-91.971,217.904-180.415
			c8.882-20.291,13.984-42.032,18.743-60.919c1.927-7.647,10.479-56.261,39.831-53.89c19.57,1.581,40.466,12.472,56.233,25.773
			c39.13,33.007,71.279,88.064,98.408,142.927c27.777,56.17,68.923,143.828,56.233,238.989
			c-2.137,16.029-12.516,39.705-23.431,44.519c-31.064,13.707-67.842-18.745-89.036-30.459
			c-28.464-15.733-59.952-27.858-93.722-30.461c-42.342-3.261-88.013-0.906-93.722,21.088c-5.465,21.052,21.134,70.11,30.461,84.35
			c10.973,16.759,35.041,22.883,32.802,39.833c-2.723,20.604-20.173,20.669-39.832,28.115c-17.191,6.512-33.2,18.753-49.204,16.403
			C307.979,588.52,300.254,502.105,279.738,476.853z M574.963,214.432c-23.199-48.727-63.581-116.17-105.438-131.211
			c0,2.344,0,4.686,0,7.03c-6.807,148.171,50.998,252.036,140.584,311.624C623.03,338.583,602.986,273.295,574.963,214.432z"/>
		<path fill="#FFFFFF" d="M610.108,401.876c-89.586-59.589-147.391-163.454-140.584-311.625c0-2.344,0-4.686,0-7.03
			c41.858,15.04,82.239,82.483,105.438,131.211C602.986,273.295,623.03,338.583,610.108,401.876z"/>
	</g>
</g>
</svg>
