<?xml version="1.0" encoding="utf-8"?>
<!-- Generator: Adobe Illustrator 15.0.0, SVG Export Plug-In . SVG Version: 6.00 Build 0)  -->
<!DOCTYPE svg PUBLIC "-//W3C//DTD SVG 1.1//EN" "http://www.w3.org/Graphics/SVG/1.1/DTD/svg11.dtd">
<svg version="1.1" id="Layer_1" xmlns="http://www.w3.org/2000/svg" xmlns:xlink="http://www.w3.org/1999/xlink" x="0px" y="0px"
	 width="800px" height="600px" viewBox="0 0 800 600" enable-background="new 0 0 800 600" xml:space="preserve">
<g>
	<g>
		<path d="M279.738,476.853c-17.573-8.2-41.954-9.592-51.548-25.771c-60.62,49.566-152.692-54.925-98.408-117.154
			c11.035-12.647,40.034-19.63,53.891-25.771c86.607-38.396,179.185-91.971,217.904-180.415
			c8.882-20.291,13.983-42.032,18.743-60.919c1.927-7.647,10.479-56.261,39.831-53.89c19.569,1.581,40.466,12.472,56.232,25.773
			c39.13,33.007,71.279,88.064,98.408,142.927c27.777,56.17,68.923,143.828,56.233,238.989
			c-2.138,16.029-12.517,39.705-23.432,44.519c-31.063,13.707-67.842-18.745-89.036-30.459
			c-28.464-15.732-59.951-27.857-93.722-30.461c-42.342-3.261-88.013-0.906-93.722,21.088c-5.465,21.053,21.134,70.11,30.461,84.351
			c10.973,16.759,35.041,22.883,32.802,39.833c-2.723,20.604-20.173,20.669-39.832,28.115c-17.191,6.512-33.2,18.753-49.204,16.402
			C307.979,588.52,300.254,502.105,279.738,476.853z M574.963,214.432c-23.199-48.727-63.581-116.17-105.438-131.211
			c0,2.344,0,4.686,0,7.03c-6.808,148.171,50.998,252.036,140.584,311.624C623.03,338.583,602.986,273.295,574.963,214.432z"/>
	</g>
</g>
</svg>
