<?xml version="1.0" encoding="utf-8"?>
<!-- Generator: Adobe Illustrator 15.0.0, SVG Export Plug-In . SVG Version: 6.00 Build 0)  -->
<!DOCTYPE svg PUBLIC "-//W3C//DTD SVG 1.1//EN" "http://www.w3.org/Graphics/SVG/1.1/DTD/svg11.dtd">
<svg version="1.1" id="Layer_1" xmlns="http://www.w3.org/2000/svg" xmlns:xlink="http://www.w3.org/1999/xlink" x="0px" y="0px"
	 width="800px" height="600px" viewBox="0 0 800 600" enable-background="new 0 0 800 600" xml:space="preserve">
<g>
	<g>
		<path d="M493.367,179.862c-57.315,0-114.632,0-171.948,0c8.343-45.085-11.889-95.593,1.72-134.121
			c14.661-41.504,150.665-52.502,168.509,0C505.787,87.34,484.831,127.808,493.367,179.862z"/>
		<path d="M232.006,219.411c9.962,0.929,24.394-2.615,29.231,3.439c8.61,29.684,0.213,70.608,3.439,98.01
			c12.289,104.431,203.119,121.965,264.803,48.145c29.787-35.648,19.509-82.357,24.071-146.154c5.705-5.341,28.688-5.341,34.391,0
			c23.751,136.7-32.761,222.842-151.314,228.69c0,24.646,0,49.294,0,73.938c23.438,5.8,61.769-3.305,82.535,5.158
			c5.425,10.966,5.425,40.623,0,51.585c-66.626,5.709-156.907,5.709-223.534,0c-5.299-11.59-5.299-39.995,0-51.585
			c20.815-7.267,54.482-1.686,80.815-3.438c4.006-21.213,0.577-49.863,1.719-73.938c-114.896-9.502-175.749-91.312-151.314-228.692
			C227.811,222.093,229.529,220.373,232.006,219.411z"/>
		<path d="M323.138,219.411c56.742,0,113.485,0,170.229,0c-6.514,44.998,9.886,70.656-1.72,103.168
			c-16.51,46.257-153.027,45.228-168.509-1.72c-8.781-26.628,2.917-60.337-1.72-96.292
			C321.272,222.127,321.136,219.699,323.138,219.411z"/>
	</g>
</g>
</svg>
