<?xml version="1.0" encoding="utf-8"?>
<!-- Generator: Adobe Illustrator 15.0.0, SVG Export Plug-In . SVG Version: 6.00 Build 0)  -->
<!DOCTYPE svg PUBLIC "-//W3C//DTD SVG 1.1//EN" "http://www.w3.org/Graphics/SVG/1.1/DTD/svg11.dtd">
<svg version="1.1" id="Layer_1" xmlns="http://www.w3.org/2000/svg" xmlns:xlink="http://www.w3.org/1999/xlink" x="0px" y="0px"
	 width="800px" height="600px" viewBox="0 0 800 600" enable-background="new 0 0 800 600" xml:space="preserve">
<g>
	<g>
		<path fill="#FFFFFF" d="M66.935-81.5c210.348,0,420.705,0,631.052,0c0,267.671,0,535.327,0,803c-210.923,0-421.849,0-632.771,0
			c0-265.952,0-531.886,0-797.841C65.068-78.782,64.933-81.212,66.935-81.5z M491.647,45.741
			c-17.845-52.502-153.848-41.504-168.509,0c-13.609,38.528,6.624,89.035-1.72,134.121c57.317,0,114.633,0,171.948,0
			C484.831,127.808,505.787,87.34,491.647,45.741z M226.847,224.568c-24.435,137.38,36.418,219.189,151.314,228.692
			c-1.141,24.075,2.288,52.725-1.719,73.938c-26.333,1.753-60-3.828-80.815,3.438c-5.299,11.589-5.299,39.995,0,51.585
			c66.627,5.709,156.908,5.709,223.534,0c5.425-10.963,5.425-40.621,0-51.585c-20.769-8.465-59.102,0.64-82.535-5.158
			c0-24.646,0-49.291,0-73.938c118.555-5.848,175.065-91.989,151.314-228.691c-5.703-5.34-28.686-5.34-34.39,0
			c-4.563,63.798,5.716,110.505-24.072,146.155c-61.682,73.82-252.513,56.286-264.802-48.145
			c-3.226-27.403,5.169-68.327-3.439-98.01c-4.837-6.054-19.269-2.511-29.231-3.438
			C229.529,220.373,227.811,222.093,226.847,224.568z M321.419,224.568c4.635,35.953-7.062,69.663,1.72,96.292
			c15.482,46.947,152,47.977,168.509,1.72c11.605-32.514-4.793-58.171,1.72-103.168c-56.742,0-113.485,0-170.229,0
			C321.136,219.699,321.272,222.127,321.419,224.568z"/>
		<path d="M493.367,179.862c-57.315,0-114.632,0-171.948,0c8.343-45.085-11.889-95.593,1.72-134.121
			c14.661-41.504,150.665-52.502,168.509,0C505.787,87.34,484.831,127.808,493.367,179.862z"/>
		<path d="M232.006,219.411c9.962,0.929,24.394-2.615,29.231,3.439c8.61,29.684,0.213,70.608,3.439,98.01
			c12.289,104.431,203.119,121.965,264.802,48.145c29.788-35.649,19.509-82.357,24.072-146.154c5.705-5.341,28.687-5.341,34.39,0
			c23.751,136.7-32.76,222.842-151.314,228.69c0,24.647,0,49.294,0,73.938c23.438,5.799,61.768-3.305,82.535,5.158
			c5.425,10.966,5.425,40.623,0,51.585c-66.626,5.709-156.907,5.709-223.534,0c-5.299-11.59-5.299-39.995,0-51.585
			c20.815-7.267,54.482-1.686,80.815-3.438c4.006-21.213,0.577-49.863,1.719-73.938c-114.896-9.502-175.749-91.312-151.314-228.692
			C227.811,222.093,229.529,220.373,232.006,219.411z"/>
		<path d="M323.138,219.411c56.742,0,113.485,0,170.229,0c-6.513,44.998,9.886,70.656-1.72,103.168
			c-16.509,46.257-153.027,45.228-168.509-1.72c-8.781-26.628,2.917-60.337-1.72-96.292
			C321.272,222.127,321.136,219.699,323.138,219.411z"/>
	</g>
</g>
</svg>
