<?xml version="1.0" encoding="utf-8"?>
<!-- Generator: Adobe Illustrator 15.0.0, SVG Export Plug-In . SVG Version: 6.00 Build 0)  -->
<!DOCTYPE svg PUBLIC "-//W3C//DTD SVG 1.1//EN" "http://www.w3.org/Graphics/SVG/1.1/DTD/svg11.dtd">
<svg version="1.1" id="Layer_1" xmlns="http://www.w3.org/2000/svg" xmlns:xlink="http://www.w3.org/1999/xlink" x="0px" y="0px"
	 width="800px" height="600px" viewBox="0 0 800 600" enable-background="new 0 0 800 600" xml:space="preserve">
<g>
	<g>
		<path d="M606.031,3.361c50.328,40.044,97.254,83.493,146.855,124.263c-41.719,36.126-85.415,73.507-128.499,110.141
			c-5.437,4.624-10.603,12.145-18.356,12.709c0-22.593,0-45.187,0-67.78c-103.387-3.311-146.352,57.127-192.043,115.791
			C331.541,404.347,265.938,524.98,56.736,501.822c0-32.008,0-64.017,0-96.021c41.422-1.405,74.408,2.928,103.082-2.825
			c27-5.417,48.07-20.29,67.78-36.712c77.292-64.414,118.19-157.211,197.69-221.696c44.534-36.124,96.262-62.896,179.331-59.307
			C607.912,60.782,605.092,30.192,606.031,3.361z"/>
		<path d="M305.261,165.748c-18.727,26.929-39.434,51.88-59.307,77.665c-28.446-24.423-59.89-50.537-110.141-53.659
			c-23.916-1.485-50.102,1.093-79.076,0c0-31.065,0-62.131,0-93.196c-0.061-2.415,1.05-3.658,2.824-4.236
			C175.482,82.775,251.46,113.175,305.261,165.748z"/>
		<path d="M606.031,343.669c50.072,39.359,96.278,82.586,145.444,122.852c-21.267,23.928-47.693,42.665-72.016,63.543
			c-24.207,20.779-47.196,43.449-73.428,62.13c0-27.3,0-54.599,0-81.897c-83.104,5.101-142.372-25.723-189.216-66.367
			c-6.17-5.353-16.806-12.916-16.945-14.12c-0.239-2.045,13.335-17.027,15.533-19.77c15.656-19.542,30.992-38.954,45.185-57.896
			c34.587,34.134,72.347,65.097,145.443,60.719C606.031,389.798,606.031,366.734,606.031,343.669z"/>
	</g>
</g>
</svg>
