<?xml version="1.0" encoding="utf-8"?>
<!-- Generator: Adobe Illustrator 15.0.0, SVG Export Plug-In . SVG Version: 6.00 Build 0)  -->
<!DOCTYPE svg PUBLIC "-//W3C//DTD SVG 1.1//EN" "http://www.w3.org/Graphics/SVG/1.1/DTD/svg11.dtd">
<svg version="1.1" id="Layer_1" xmlns="http://www.w3.org/2000/svg" xmlns:xlink="http://www.w3.org/1999/xlink" x="0px" y="0px"
	 width="800px" height="600px" viewBox="0 0 800 600" enable-background="new 0 0 800 600" xml:space="preserve">
<g>
	<g>
		<path d="M346.135,1.312c0.748,0,1.495,0,2.242,0c12.038,21.596,30.805,36.464,42.604,58.299
			c22.314-13.562,30.438-41.315,51.572-56.057c7.181,24.212,17.812,44.971,24.665,69.511c21.778-13.351,40.88-29.378,65.026-40.361
			c-1.234,26.646,1.436,49.389,2.242,73.995c23.143-6.753,47.857-11.936,69.51-20.18c2.717,22.914-12.285,47.496-15.695,71.753
			c22.676,3.484,48.224,4.096,73.995,4.484c-11.645,22.737-27.219,41.545-40.361,62.784c21.48,10.659,46.38,17.9,69.512,26.907
			c-17.713,17.417-38.386,31.873-58.3,47.088c18.274,17.602,41.665,30.087,58.3,49.33c-24.088,7.305-45.558,17.228-69.512,24.665
			c12.367,22.762,29.324,40.934,40.361,65.025c-26.646-1.233-49.389,1.437-73.995,2.242c4.349,25.549,13.938,45.856,17.938,71.752
			c-24.987-4.161-45.682-12.618-69.511-17.938c-5.686,20.475-4.381,47.938-4.483,73.995c-23.038-11.346-42.565-26.199-62.784-40.361
			c-11.436,20.704-18.328,45.95-26.907,69.511c-18.044-17.086-32.779-37.479-47.088-58.299
			c-17.283,17.846-31.78,38.478-47.088,58.299c-11.76-20.379-18.949-45.329-26.907-69.511
			c-23.792,11.337-41.234,29.023-65.026,40.361c1.222-26.635-3.958-46.868-2.242-73.995c-26.613,4.03-46.583,14.705-73.995,17.938
			c7.467-22.43,12.573-47.22,20.18-69.51c-20.474-5.687-47.939-4.381-73.995-4.484c11.303-23.078,25.211-43.552,40.361-62.784
			c-21.252-10.888-45.862-18.416-69.511-26.906c15.123-20.006,40.043-30.215,56.057-49.33
			c-19.305-15.077-37.14-31.623-58.299-44.846c0-0.747,0-1.495,0-2.242c24.087-7.304,45.557-17.227,69.511-24.665
			c-8.073-24.823-32.291-45.428-38.119-65.026c26.634,1.222,46.867-3.958,73.995-2.242c-6.051-25.34-13.924-48.859-20.18-73.995
			c25.136,6.256,48.655,14.129,73.995,20.18c-1.672-27.832,3.594-48.725,2.242-76.237c22.27,12.859,39.768,30.49,65.026,40.361
			C328.908,46.869,338.831,25.4,346.135,1.312z M323.712,86.519c-18.848-13.292-37.205-27.074-58.299-38.119
			c-6.255,19.158,2.959,53.784-6.727,69.51c-21.106-6.548-42.464-12.845-65.026-17.938c4.905,23.497,12.4,44.404,17.938,67.268
			c-19.8,4.865-49.855-0.525-69.51,4.485c10.749,22.137,26.618,39.156,38.119,60.541c-24.086,6.559-46.353,14.937-67.269,24.665
			c19.683,13.952,39.011,28.258,56.057,44.846c-18.488,14.397-39.835,25.938-53.814,44.846c22.702,7.195,45.62,14.174,65.026,24.665
			c-13.955,18.185-26.635,37.644-38.119,58.299c23.041,1.624,48.556,0.774,69.51,4.484c-5.719,22.684-13.225,43.579-17.938,67.269
			c22.541-5.86,43.168-13.637,67.268-17.938c6.146,19.267-3.153,53.978,6.727,69.511c18.848-13.291,37.205-27.073,58.299-38.118
			c6.51,23.387,14.42,45.374,24.665,65.025c11.759-4.683,31.465-54.846,44.846-53.814c3.527,0.271,18.594,22.168,22.423,26.907
			c8.666,10.727,11.679,22.146,22.423,26.907c6.511-23.388,14.421-45.374,24.665-65.025c19.203,12.936,38.225,26.055,58.3,38.118
			c1.624-23.041,0.773-48.556,4.483-69.511c23.993,4.409,44.104,12.699,67.27,17.938c-5.104-24.046-14.483-43.815-17.938-69.511
			c24.831,0.167,49.746,0.416,69.511-4.484c-13.556-18.584-26.667-37.61-38.117-58.299c22.905-6.243,41.099-17.2,65.024-22.423
			c-2.985-16.313-54.258-33.559-53.813-47.088c0.156-4.786,21.549-18.238,26.906-22.423c10.871-8.49,21.117-12.603,26.907-22.423
			c-22.33-7.566-44.4-15.392-65.024-24.665c12.557-19.582,26.308-37.97,38.117-58.299c-19.157-6.255-53.783,2.959-69.511-6.727
			c5.244-22.411,11.946-43.364,17.938-65.026c-24.608,4.541-45.091,13.209-69.512,17.938c1.566-25.484-2.272-45.562-2.241-69.51
			c-21.679,11.208-39.865,25.908-60.541,38.119c-6.474-22.677-16.518-41.784-22.424-65.026
			c-20.074,13.559-29.426,37.842-47.087,53.813c-14.482-19.152-28.82-38.448-44.846-56.057
			C341.349,42.867,333.042,65.205,323.712,86.519z"/>
		<path d="M485.156,129.122c-1.077,10.793,1.098,18.335,13.453,15.696c-1.854,6.337,3.159,5.809,2.241,11.211
			c-6.337-1.853-5.809,3.161-11.211,2.243c3.453,12.242,5.517,25.876,8.97,38.119c4.275,4.208,4.058-1.331,11.212,0
			c-1.627,6.858,3.868,6.595,2.241,13.454c-7.863,1.105-14.596,3.343-24.664,2.242c-12.272-13.888-4.046-48.276-24.665-53.814
			c-1.539-7.519,3.762-8.197,8.969-8.969c-3.062-4.413-2.142-12.808-4.484-17.938C474.438,131.858,476.705,127.398,485.156,129.122z
			"/>
		<path d="M561.394,149.303c-15.62,7.422-30.377-14.001-40.36,4.484c13.934,13.87,43.388-0.494,49.33,17.938
			c10.485,32.522-53.676,46.521-60.541,13.454c15.286-6.643,35.021,15.744,44.845-4.485c-8.407-9.53-32.009-3.867-44.845-8.969
			C486.262,138.079,554.854,114.158,561.394,149.303z"/>
		<path d="M346.135,149.303c9.379,10.802,8.153,32.208,13.454,47.088c12.066-10.356,10.541-34.305,35.876-31.392
			c-3.819,10.382-10.713,17.689-15.696,26.907c7.735,15.436,23.745,22.596,31.392,38.119c-23.741,8.12-29.437-9.416-40.361-20.18
			c-12.101,3.563-3.448,19.6-2.242,29.149c-8.315-1.588-9.623,3.831-17.938,2.242c-4.083-30.298-10.767-57.996-17.938-85.207
			C333.479,150.1,344.107,154.001,346.135,149.303z"/>
		<path d="M469.46,187.421c-15.174,2.764-28.315,7.561-44.846,8.969c5.36,32.484,27.342,2.49,44.846,2.242
			c-8.723,47.611-77.105,24.879-65.026-22.423C412.469,144.748,469.371,145.936,469.46,187.421z M420.13,185.179
			c11.962,0.75,19.633-2.791,29.149-4.485C448.653,163.794,416.577,166.559,420.13,185.179z"/>
		<path d="M258.686,185.179c-5.13,1.428-13.525,4.448-17.938,0c0-3.737,0-7.474,0-11.211
			C251.119,167.739,260.82,169.153,258.686,185.179z"/>
		<path fill="#FFFFFF" d="M449.279,180.694c-9.518,1.694-17.188,5.235-29.149,4.485
			C416.577,166.559,448.653,163.794,449.279,180.694z"/>
		<path d="M236.263,189.664c-6.452,4.012-17.813,3.115-24.665,6.727c2.924,26.226,12.066,46.233,13.454,73.995
			c-7.777-1.798-8.619,3.339-15.696,2.242c-6.199-22.951-10.292-48.007-15.696-71.753c-10.865-0.401-17.97,2.958-26.907,4.484
			c1.097-7.077-4.041-7.918-2.242-15.696c24.789-2.866,44.961-10.349,69.51-13.454C233.971,181.492,237.883,182.812,236.263,189.664
			z"/>
		<path d="M332.681,200.875c-14.986,8.604-21.336-11.292-35.876-2.242c-10.193,11.821-2.482,38.173,11.211,40.361
			c15.766,0.07,9.296-22.095,29.149-17.938c-7.57,55.038-71.623,28.779-62.784-15.696
			C278.963,182.307,325.299,166.758,332.681,200.875z"/>
		<path d="M260.928,194.148c4.776,21.384,9.644,42.676,13.454,65.026c-7.777-1.798-8.619,3.339-15.696,2.242
			c-3.507-20.428-14.051-45.72-11.211-65.026C250.125,193.809,255.4,193.853,260.928,194.148z"/>
		<path d="M530.001,321.958c-7.777-1.799-8.618,3.34-15.695,2.242c-6.36-28.768-13.607-56.65-17.938-87.449
			c1.359-3.872,10.636,0.172,11.212-4.485C521.285,255.932,522.369,292.219,530.001,321.958z"/>
		<path d="M595.027,277.112c-15.175,2.765-28.315,7.561-44.847,8.969c5.361,32.485,27.343,2.49,44.847,2.242
			c-8.724,47.61-77.105,24.879-65.026-22.423C538.036,234.438,594.938,235.626,595.027,277.112z M545.697,274.87
			c11.962,0.751,19.633-2.791,29.148-4.484C574.221,253.485,542.145,256.25,545.697,274.87z"/>
		<path fill="#FFFFFF" d="M574.847,270.386c-9.517,1.694-17.188,5.235-29.148,4.484C542.145,256.25,574.221,253.485,574.847,270.386
			z"/>
		<path d="M487.398,268.143c8.739,15.925,5.766,43.564,17.938,56.057c-4.8,3.603-19.338,7.92-22.422,0
			c-10.717,24.021-55.465,11.598-40.361-20.181c8.479-9.458,28.028-7.849,33.635-20.181c-3.118-9.677-24.889-7.854-22.424,6.727
			c-8.313-1.588-9.622,3.831-17.938,2.242C434.054,265.544,466.89,259.523,487.398,268.143z M478.429,301.777
			c-5.76-2.679-21.122,4.222-22.423,13.454c1.167,3.316,3.318,5.649,4.485,8.969C474.465,325.596,485.398,314.083,478.429,301.777z"
			/>
		<path d="M426.856,295.051c-15.62,7.422-30.376-14.001-40.361,4.484c13.933,13.87,43.387-0.494,49.331,17.938
			c10.385,32.208-53.734,46.574-60.542,13.453c15.898-7.254,34.76,16.006,44.846-4.483c-16.352-12.001-45.091,0.438-49.33-20.182
			C365.013,278.117,419.439,263.483,426.856,295.051z"/>
		<path d="M325.954,301.777c8.602,16.811,10.155,40.67,15.696,60.541c-8.451-1.725-10.718,2.735-17.938,2.242
			c-5.495-17.675-1.83-44.511-17.938-51.572c-8.7,0.27-11.331,6.607-15.696,11.212c2.463,16.223,6.506,30.865,8.969,47.088
			c-7.777-1.799-8.619,3.34-15.696,2.242c-5.02-21.141-10.086-42.233-13.454-65.026c4.325-0.748,18.447-7.369,15.696,4.484
			C290.542,301.188,309.767,295.28,325.954,301.777z"/>
		<path fill="#FFFFFF" d="M460.491,324.2c-1.167-3.318-3.318-5.651-4.485-8.969c1.301-9.232,16.663-16.133,22.423-13.454
			C485.398,314.083,474.465,325.596,460.491,324.2z"/>
		<path d="M227.294,315.231c34.362-5.458,55.127,37.183,31.392,60.54C216.198,417.584,166.088,324.953,227.294,315.231z
			 M225.052,369.046c9.141,1.854,7.721,0.344,17.938,0C274.54,316.958,187.484,318.697,225.052,369.046z"/>
		<path fill="#FFFFFF" d="M242.99,369.046c-10.217,0.344-8.798,1.854-17.938,0C187.484,318.697,274.54,316.958,242.99,369.046z"/>
		<path d="M559.151,339.896c4.798,19.118,5.335,42.498,8.969,62.782c-6.338-1.853-5.81,3.16-11.212,2.242
			c-3.081-23.078-14.272-38.046-15.695-62.783C548.433,342.632,550.7,338.172,559.151,339.896z"/>
		<path d="M525.517,373.53c8.669,16.744,10.834,39.991,15.696,60.541c-8.451-1.725-10.719,2.735-17.938,2.241
			c-5.495-17.674-1.83-44.51-17.938-51.571c-8.699,0.27-11.33,6.607-15.695,11.212c2.011,16.676,7.2,30.171,8.97,47.088
			c-7.777-1.799-8.619,3.34-15.695,2.242c-5.021-21.142-10.087-42.233-13.454-65.026c4.325-0.748,18.446-7.369,15.696,4.484
			C490.104,372.939,509.329,367.032,525.517,373.53z"/>
		<path d="M426.856,389.227c53.854-8.555,49.128,75.638,0,69.511C392.677,454.474,385.904,395.73,426.856,389.227z M424.614,443.041
			c9.141,1.854,7.722,0.344,17.938,0c11.232-8.816,6.394-32.435-2.242-40.361C413.938,391.016,409.576,431.058,424.614,443.041z"/>
		<path fill="#FFFFFF" d="M440.311,402.68c8.636,7.928,13.476,31.545,2.242,40.361c-10.217,0.344-8.798,1.854-17.938,0
			C409.576,431.058,413.938,391.016,440.311,402.68z"/>
		<path d="M355.104,404.922c53.969-8.813,49.113,75.636,0,69.511C320.702,470.142,314.558,411.544,355.104,404.922z
			 M352.862,458.736c9.141,1.854,7.721,0.344,17.938,0C402.349,406.649,315.294,408.389,352.862,458.736z"/>
		<path d="M574.847,409.406c-1.724,8.451,2.735,10.719,2.242,17.938c-7.22-0.493-9.487,3.966-17.938,2.242
			c1.097-7.077-4.041-7.918-2.243-15.695C562.172,411.68,567.925,409.958,574.847,409.406z"/>
		<path d="M319.228,434.071c-15.621,7.422-30.377-14.001-40.361,4.484c13.933,13.869,43.387-0.493,49.33,17.938
			c10.486,32.522-53.674,46.521-60.542,13.454c16.225-6.929,34.106,15.352,44.845-4.484c-7.994-7.702-25.723-5.67-40.361-6.728
			C237.419,430.295,311.514,394.709,319.228,434.071z"/>
		<path fill="#FFFFFF" d="M370.8,458.736c-10.217,0.344-8.797,1.854-17.938,0C315.294,408.389,402.349,406.649,370.8,458.736z"/>
	</g>
</g>
</svg>
