<?xml version="1.0" encoding="utf-8"?>
<!-- Generator: Adobe Illustrator 15.0.0, SVG Export Plug-In . SVG Version: 6.00 Build 0)  -->
<!DOCTYPE svg PUBLIC "-//W3C//DTD SVG 1.1//EN" "http://www.w3.org/Graphics/SVG/1.1/DTD/svg11.dtd">
<svg version="1.1" id="Layer_1" xmlns="http://www.w3.org/2000/svg" xmlns:xlink="http://www.w3.org/1999/xlink" x="0px" y="0px"
	 width="800px" height="600px" viewBox="0 0 800 600" enable-background="new 0 0 800 600" xml:space="preserve">
<g>
	<g>
		<path fill="#FFFFFF" d="M53.744-39.5c234.87,0,469.727,0,704.596,0c0,232.33,0,464.672,0,697c-235.498,0-470.997,0-706.495,0
			c0-230.433,0-460.868,0-691.302C51.681-36.497,51.532-39.181,53.744-39.5z M188.586,102.939
			c-38.946,43.289-77.866,108.294-77.866,197.514c0,117.399,60.098,196.822,131.043,244.994
			c76.478,51.929,200.933,66.925,296.274,18.991c104.411-52.493,185.566-173.805,155.731-322.861
			c-13.867-69.289-49.665-118.599-89.261-155.733c-54.809-51.401-129.627-86.298-231.7-75.967
			C289.493,18.312,229.95,56.963,188.586,102.939z"/>
		<path d="M372.807,9.879c102.073-10.332,176.891,24.565,231.7,75.967c39.595,37.135,75.393,86.443,89.261,155.733
			c29.837,149.056-51.32,270.366-155.731,322.86c-95.34,47.935-219.796,32.938-296.274-18.991
			c-70.946-48.173-131.044-127.596-131.044-244.994c0-89.221,38.919-154.225,77.867-197.514
			C229.95,56.963,289.493,18.312,372.807,9.879z M524.741,249.175c9.808-9.817,21.129-18.122,28.488-30.387
			c-10.472,2.191-18.015,7.309-30.388,7.598c9.678-8.048,18.229-17.222,22.79-30.387c-11.833,4.628-22.875,10.043-36.085,13.294
			c-35.062-39.921-115.319-8.484-98.757,53.176c-54.69-5.452-92.115-28.167-119.649-60.774
			c-18.792,25.002,1.136,65.488,13.294,75.968c-9.052,0.188-14.187-3.54-20.89-5.698c-0.662,34.213,21.912,45.192,41.781,58.875
			c-6.964,0-13.927,0-20.891,0c6.247,24.772,27.931,34.108,51.278,41.782c-19.905,13.843-52.57,24.396-81.666,22.789
			C381.9,464.352,532.646,381.528,524.741,249.175z"/>
		<path fill="#FFFFFF" d="M274.048,395.412c29.095,1.608,61.761-8.946,81.666-22.789c-23.346-7.673-45.031-17.01-51.278-41.782
			c6.964,0,13.927,0,20.892,0c-19.87-13.682-42.444-24.661-41.782-58.875c6.704,2.159,11.839,5.886,20.89,5.698
			c-12.158-10.479-32.085-50.965-13.294-75.968c27.535,32.606,64.959,55.322,119.649,60.774
			c-16.563-61.662,63.694-93.098,98.757-53.176c13.209-3.25,24.253-8.666,36.085-13.294c-4.561,13.165-13.112,22.339-22.789,30.387
			c12.372-0.287,19.916-5.406,30.387-7.597c-7.361,12.265-18.681,20.569-28.488,30.387
			C532.646,381.528,381.9,464.352,274.048,395.412z"/>
	</g>
</g>
</svg>
